<svg width="26" height="26" viewBox="0 0 26 26" fill="none" xmlns="http://www.w3.org/2000/svg">
<path d="M13 25.5C6.09644 25.5 0.5 19.9036 0.5 13C0.5 6.09644 6.09644 0.5 13 0.5C19.9036 0.5 25.5 6.09644 25.5 13C25.4924 19.9004 19.9004 25.4924 13 25.5ZM11.75 19.25V21.75H14.25V19.25H11.75ZM13 6.75C14.3807 6.75 15.5 7.86929 15.5 9.25C15.5044 9.91341 15.2381 10.5499 14.7625 11.0125L13.2125 12.5875C12.2768 13.5271 11.751 14.7989 11.75 16.125V16.75H14.25C14.1529 15.4063 14.6948 14.0953 15.7125 13.2125L16.8375 12.0625C17.5851 11.3179 18.0037 10.3051 18 9.25C18 6.48858 15.7614 4.25 13 4.25C10.2386 4.25 8 6.48858 8 9.25H10.5C10.5 7.86929 11.6193 6.75 13 6.75Z" fill="#00A0A3"/>
</svg>
