<svg width="40" height="40" viewBox="0 0 40 40" fill="none" xmlns="http://www.w3.org/2000/svg">
<path fill-rule="evenodd" clip-rule="evenodd" d="M5 31.2143C5 30.7407 5.1317 30.2865 5.36612 29.9516C5.60054 29.6167 5.91848 29.4286 6.25 29.4286H33.75C34.0815 29.4286 34.3995 29.6167 34.6339 29.9516C34.8683 30.2865 35 30.7407 35 31.2143C35 31.6879 34.8683 32.1421 34.6339 32.477C34.3995 32.8119 34.0815 33 33.75 33H6.25C5.91848 33 5.60054 32.8119 5.36612 32.477C5.1317 32.1421 5 31.6879 5 31.2143ZM5 20.5C5 20.0264 5.1317 19.5722 5.36612 19.2373C5.60054 18.9024 5.91848 18.7143 6.25 18.7143H23.75C24.0815 18.7143 24.3995 18.9024 24.6339 19.2373C24.8683 19.5722 25 20.0264 25 20.5C25 20.9736 24.8683 21.4278 24.6339 21.7627C24.3995 22.0976 24.0815 22.2857 23.75 22.2857H6.25C5.91848 22.2857 5.60054 22.0976 5.36612 21.7627C5.1317 21.4278 5 20.9736 5 20.5ZM5 9.78571C5 9.31211 5.1317 8.85791 5.36612 8.52302C5.60054 8.18814 5.91848 8 6.25 8H33.75C34.0815 8 34.3995 8.18814 34.6339 8.52302C34.8683 8.85791 35 9.31211 35 9.78571C35 10.2593 34.8683 10.7135 34.6339 11.0484C34.3995 11.3833 34.0815 11.5714 33.75 11.5714H6.25C5.91848 11.5714 5.60054 11.3833 5.36612 11.0484C5.1317 10.7135 5 10.2593 5 9.78571Z" fill="white"/>
</svg>
